<?xml version="1.0" encoding="UTF-8"?>
<svg xmlns="http://www.w3.org/2000/svg" viewBox="0 0 100 60">
  <path d="m4,0h92c2.21,0,4,1.79,4,4v52c0,2.21-1.79,4-4,4H4c-2.21,0-4-1.79-4-4V4C0,1.79,1.79,0,4,0Z" fill="#231f20"/>
  <path d="m82.94,26.96c-3.23-2.2-7.63-1.37-9.84,1.86s-1.37,7.63,1.86,9.84c2.4,1.64,5.57,1.64,7.97,0v.86h4.02v-13.41h-4.02v.86Zm-3.65,9.3c-1.91-.1-3.37-1.73-3.27-3.63.1-1.91,1.73-3.37,3.63-3.27,1.83.1,3.27,1.61,3.27,3.45-.05,1.96-1.68,3.5-3.64,3.45Z" fill="#fff"/>
  <rect x="23.66" y="20.12" width="4.2" height="19.39" fill="#fff"/>
  <path d="m64.75,25.74c-1.6-.09-3.15.61-4.14,1.87v-1.51h-4v13.41h4.05v-7.05c-.12-1.56,1.05-2.92,2.6-3.04.14-.01.27-.01.41,0,1.77,0,2.78,1.05,2.78,3.01v7.08h4.01v-8.53c0-3.12-2.48-5.24-5.72-5.24Z" fill="#fff"/>
  <path d="m40.57,26.96c-3.23-2.2-7.63-1.37-9.84,1.86s-1.37,7.63,1.86,9.84c2.4,1.64,5.57,1.64,7.97,0v.86h4.02v-13.41h-4.02v.86Zm-3.65,9.3c-1.91-.1-3.37-1.73-3.27-3.63.1-1.91,1.73-3.37,3.63-3.27,1.83.1,3.27,1.61,3.27,3.45-.05,1.96-1.68,3.5-3.64,3.45Z" fill="#fff"/>
  <path d="m50.8,27.85v-1.75h-4.11v13.41h4.12v-6.26c0-2.11,2.29-3.25,3.88-3.25.02,0,.03,0,.05,0v-3.9c-1.51-.04-2.95.6-3.94,1.75Z" fill="#fff"/>
  <path d="m91.22,34.75h0c-1.39,0-2.52,1.13-2.52,2.52,0,1.39,1.13,2.52,2.52,2.52s2.52-1.13,2.52-2.52c0-1.39-1.13-2.52-2.52-2.52Z" fill="#fff"/>
  <path d="m20.77,20.12h-4.36c.01,3.54-1.66,6.88-4.5,8.99l-1.73,1.29,6.69,9.12h5.5l-6.15-8.39c2.93-2.91,4.57-6.88,4.55-11.01Z" fill="#fff"/>
  <rect x="5.29" y="20.12" width="4.36" height="19.4" fill="#fff"/>
</svg>
