<?xml version="1.0" encoding="UTF-8"?>
<svg xmlns="http://www.w3.org/2000/svg" viewBox="0 0 612 136.76">
  <path d="m537.27,47.32c-22.35-15.23-52.81-9.46-68.04,12.89-15.23,22.35-9.46,52.81,12.89,68.04,16.64,11.34,38.51,11.34,55.15,0v5.93h27.79V41.38h-27.79v5.94Zm-25.27,64.35c-13.19-.7-23.31-11.96-22.61-25.15.7-13.19,11.96-23.31,25.15-22.61,12.69.68,22.64,11.16,22.64,23.88-.37,13.54-11.64,24.23-25.18,23.88Z"/>
  <rect x="127.15" y=".03" width="29.08" height="134.16"/>
  <path d="m411.38,38.89c-11.09-.66-21.79,4.19-28.62,12.95v-10.45h-27.67v92.8h28v-48.77c-.83-10.78,7.24-20.18,18.01-21.01.95-.07,1.9-.08,2.84-.01,12.21,0,19.23,7.3,19.23,20.83v48.96h27.76v-59.02c0-21.6-17.17-36.29-39.56-36.29Z"/>
  <path d="m244.14,47.32c-22.35-15.23-52.81-9.46-68.04,12.89-15.23,22.35-9.46,52.81,12.89,68.04,16.64,11.34,38.51,11.34,55.15,0v5.93h27.79V41.38h-27.79v5.94Zm-25.27,64.35c-13.19-.7-23.31-11.96-22.61-25.14.7-13.19,11.96-23.31,25.14-22.61,12.7.67,22.64,11.16,22.64,23.88-.37,13.54-11.64,24.23-25.18,23.88h0Z"/>
  <path d="m314.91,53.47v-12.09h-28.45v92.8h28.51v-43.33c0-14.62,15.85-22.48,26.84-22.48.11,0,.22.01.33.01v-27.01c-10.43-.28-20.44,4.16-27.23,12.08Z"/>
  <path d="m594.56,101.27c-9.63,0-17.44,7.81-17.44,17.44,0,9.63,7.81,17.44,17.44,17.44,9.63,0,17.44-7.81,17.44-17.44,0-9.63-7.81-17.44-17.44-17.44h0Z"/>
  <path d="m107.1,0h-30.14c.09,24.51-11.47,47.6-31.16,62.2l-11.94,8.94,46.26,63.08h38.03l-42.56-58.05C95.88,56.03,107.23,28.59,107.1,0Z"/>
  <rect width="30.19" height="134.22"/>
</svg>
